<svg width="390" height="182" viewBox="0 0 390 182" fill="none" xmlns="http://www.w3.org/2000/svg">
<ellipse cx="84.1844" cy="15.1707" rx="15.7147" ry="15.1707" fill="#E88810"/>
<ellipse cx="269.535" cy="32.3602" rx="18.8576" ry="18.2048" fill="#E88810"/>
<path d="M108.594 171.701C94.4298 184.379 44.8859 185.275 16.2703 171.701C-8.40271 159.998 0.178932 53.1275 8.41294 36.4766C15.4845 22.1762 35.285 20.6833 43.1423 32.0764C56.5989 51.5884 47.1496 122.829 47.1496 130.215C47.1496 137.6 86.4996 122.718 108.594 135.165C121.845 142.629 118.015 163.269 108.594 171.701Z" fill="#E88810"/>
<path d="M75.3142 40.6952C80.4951 35.6873 87.828 35.6627 93.936 40.6952C103.915 48.9169 112.008 86.4248 103.915 111.097C99.9486 123.188 73.9137 127.22 68.8711 111.097C62.5151 90.7742 64.9545 50.7087 75.3142 40.6952Z" fill="#E88810"/>
<path d="M158.05 31.5783C151.795 19.2621 130.177 20.6059 124.622 36.6428C114.454 65.9985 113.726 104.135 119.695 119.604C125.363 134.297 137.857 132.786 144.535 127.752C150.8 123.03 154.435 110.545 154.435 110.545C154.435 110.545 157.075 143.533 169.914 160.727C176.672 169.775 191.905 169.775 198.804 160.727C215.372 138.994 212.063 63.5201 203.014 44.706C197.424 33.0827 183.653 35.5829 177.57 44.706C172.733 51.9629 167.447 69.0748 167.447 69.0748C167.447 69.0748 163.448 42.2086 158.05 31.5783Z" fill="#E88810"/>
<path d="M251.451 55.899C259.999 63.9093 270.376 65.8502 279.737 58.8062C312.405 34.2241 322.559 63.7892 307.552 76.328C265.677 111.315 320.888 122.433 322.559 142.565C324.231 162.698 293.501 168.073 279.737 148.363C267.838 131.324 265.078 130.746 252.379 147.199C230.976 174.928 212.959 157.054 219.409 133.402C224.51 114.698 229.623 101.328 219.409 76.328C214.2 63.5764 213.586 58.8062 213.586 51.784C213.586 40.2876 228.369 30.9092 238.851 41.3914C243.425 45.9653 244.764 49.6338 251.451 55.899Z" fill="#E88810"/>
<path fill-rule="evenodd" clip-rule="evenodd" d="M311.489 102.15C308.443 119.89 322.507 127.707 335.439 123.903C344.568 121.217 348.222 112.274 348.222 112.274C348.222 112.274 351.019 144.69 355.397 151.784C361.082 160.996 379.39 162.698 385.69 151.784C392.32 140.3 391.942 63.4933 380.027 44.7008C368.111 25.9083 348.849 30.9716 337.202 44.7008C325.555 58.4299 315.841 76.8051 311.489 102.15Z" fill="#E88810"/>
</svg>
